<svg id="GamePad" version="1.1" xmlns="http://www.w3.org/2000/svg" xmlns:xlink="http://www.w3.org/1999/xlink" x="0px"
    y="0px" viewBox="0 0 1000 1000" xml:space="preserve">
    <path d="M692.59,633.05c5.92,0,11.42,3.05,14.56,8.07c34.02,54.4,120.34,182.71,177.56,182.71c72.62,0,122.54-7.53,105.37-139.65
		c-8.62-66.35-40.69-306.82-54.17-369.73s-84.17-138.28-181.44-138.28c-58.2,0-109.81,28.23-151.07,71.43
		c-3.24,3.39-7.73,5.33-12.42,5.33l-181.96,0c-4.69,0-9.18-1.93-12.42-5.33c-41.27-43.2-92.87-71.42-151.07-71.42
		c-97.27,0-167.95,75.37-181.44,138.28S18.55,617.83,9.92,684.18C-7.25,816.3,42.67,823.83,115.29,823.83
		c57.22,0,143.54-128.31,177.56-182.71c3.14-5.02,8.64-8.07,14.56-8.07L692.59,633.05z" />
</svg>