<svg id="Music" version="1.1" xmlns="http://www.w3.org/2000/svg" xmlns:xlink="http://www.w3.org/1999/xlink" x="0px"
    y="0px" viewBox="0 0 1000 1000" xml:space="preserve">
    <path d="M920.83,782.97c1.67,55.24-32.52,121.77-95.96,167.27c-86.97,62.38-192.64,63.93-236.02,3.45
		c-43.38-60.48-8.04-160.07,78.94-222.46c36.29-26.03,76.05-41.61,113.12-46.48c0,0,0.24-474.28,0.24-482.16
		c-9.19,2.96-97.02,35.51-202.24,35.51s-180.22-26.87-204.05-35.04c0,8.58,0.07,579.86,0.07,579.86
		c1.61,55.21-32.58,121.67-95.96,167.12c-86.97,62.38-192.64,63.93-236.02,3.45c-43.38-60.48-8.04-160.07,78.94-222.46
		c36.25-26,75.94-41.57,112.97-46.46c0,0,0-564.57,0-608.66c0-54,48-74,75-74c36,0,115.7,52.59,268.95,52.59
		S801.21,2.11,846.36,2.11c45.89,0,74.5,38.51,74.5,74.5C920.86,100.25,920.83,782.97,920.83,782.97z" />
</svg>