<svg id="Network" version="1.1" xmlns="http://www.w3.org/2000/svg" xmlns:xlink="http://www.w3.org/1999/xlink" x="0px"
    y="0px" viewBox="0 0 1000 1000" xml:space="preserve">
    <path
        d="M500,999.18c-67.37,0-132.75-13.21-194.32-39.25c-59.45-25.14-112.83-61.13-158.66-106.96
		c-45.83-45.83-81.81-99.21-106.96-158.66C14.02,632.75,0.82,567.37,0.82,500s13.21-132.75,39.25-194.32
		c25.14-59.45,61.13-112.83,106.96-158.66c45.83-45.83,99.21-81.81,158.66-106.96C367.25,14.02,432.63,0.82,500,0.82
		s132.75,13.21,194.32,39.25c59.45,25.14,112.83,61.13,158.66,106.96c45.83,45.83,81.81,99.21,106.96,158.66
		c26.04,61.57,39.25,126.95,39.25,194.32s-13.21,132.75-39.25,194.32c-25.14,59.45-61.13,112.83-106.96,158.66
		s-99.21,81.81-158.66,106.96C632.75,985.98,567.37,999.18,500,999.18z M500,100.82c-220.11,0-399.18,179.07-399.18,399.18
		c0,220.11,179.07,399.18,399.18,399.18c220.11,0,399.18-179.07,399.18-399.18C899.18,279.89,720.11,100.82,500,100.82z" />
    <path d="M379.53,887.41c-15.34-26.85-29.11-54.67-41.26-83.4c-40.74-96.31-61.39-198.59-61.39-304c0-105.41,20.66-207.69,61.39-304
		c12.15-28.73,25.92-56.55,41.26-83.4l62.39-18.26l71.16,0.21c-84.5,113.24-134.58,253.61-134.58,405.45s50.07,292.21,134.58,405.45
		l-77.4,7.77L379.53,887.41z" />
    <path d="M486.93,905.46c84.5-113.24,134.58-253.61,134.58-405.45c0-151.84-50.07-292.21-134.58-405.45l72.5-11.38l61.04,29.43
		c15.34,26.85,29.11,54.67,41.26,83.4c40.74,96.31,61.39,198.59,61.39,304c0,105.41-20.66,207.69-61.39,304
		c-12.15,28.73-25.92,56.55-41.26,83.4l-69.73,28.67L486.93,905.46z" />
    <path d="M836.15,273.15c-10.58,5.05-21.3,9.86-32.15,14.45C707.69,328.34,605.41,349,500,349c-105.41,0-207.69-20.66-304-61.39
		c-10.85-4.59-21.56-9.41-32.14-14.45l14.6-50.18l56.2-29.56c81.56,34.74,171.25,53.97,265.35,53.97
		c93.65,0,182.93-19.05,264.18-53.47c0.39-0.17,0.78-0.33,1.17-0.5l49.6,30.7L836.15,273.15z" />
    <path d="M163.85,726.86c10.58-5.05,21.3-9.86,32.15-14.45c96.31-40.74,198.59-61.39,304-61.39c105.41,0,207.69,20.66,304,61.39
		c10.85,4.59,21.56,9.41,32.15,14.45l-23.94,41.37l-46.85,38.38C683.79,771.87,594.1,752.64,500,752.64s-183.79,19.23-265.35,53.97
		l-48.21-41.26L163.85,726.86z" />
    <rect x="83.21" y="449.19" width="833.59" height="101.62" />
</svg>