<svg id="Picture" version="1.1" xmlns="http://www.w3.org/2000/svg" xmlns:xlink="http://www.w3.org/1999/xlink" x="0px"
    y="0px" viewBox="0 0 1000 1000" xml:space="preserve">
    <path d="M290.97,253.96l21.83-139.43c3.7-13.57,17.51-19.8,32.2-23.1c15.83-3.55,71.73-10.01,154.99-10.01
		s138.43,5.36,154.99,10.01s28.5,9.52,32.2,23.1l21.83,139.43h229.09c27.61,0,50,22.39,50,50v493.35c0,27.61-22.39,50-50,50H61.88
		c-27.61,0-50-22.39-50-50V303.96c0-27.61,22.39-50,50-50H290.97z M500,344.36c-113.92,0-206.27,92.35-206.27,206.27
		S386.08,756.91,500,756.91s206.27-92.35,206.27-206.27S613.92,344.36,500,344.36z" />
    <circle cx="500" cy="550.64" r="115.83" />
</svg>