<svg id="Settings" version="1.1" xmlns="http://www.w3.org/2000/svg" xmlns:xlink="http://www.w3.org/1999/xlink" x="0px"
    y="0px" viewBox="0 0 1000 1000" xml:space="preserve">
    <path
        d="M994.8,560.21V765.8c0,50.15-40.66,90.81-90.81,90.81H96.01c-50.15,0-90.81-40.66-90.81-90.81V560.21
		c0-8.73,7.08-15.81,15.81-15.81h207.1v36.13c0,8.73,7.08,15.81,15.81,15.81h94.17c8.73,0,15.81-7.08,15.81-15.81V544.4H635.7v36.13
		c0,8.73,7.08,15.81,15.81,15.81h94.17c8.73,0,15.81-7.08,15.81-15.81V544.4h217.51C987.72,544.4,994.8,551.48,994.8,560.21z" />
    <path
        d="M994.8,477.51v-92.5c0-50.22-40.71-90.93-90.93-90.93H96.13c-50.22,0-90.93,40.71-90.93,90.93v92.5
		c0,8.8,7.13,15.93,15.93,15.93h206.98v-42.77c0-7.52,6.1-13.62,13.62-13.62h98.54c7.52,0,13.62,6.1,13.62,13.62v42.77H635.7v-42.77
		c0-7.52,6.1-13.62,13.62-13.62h98.54c7.52,0,13.62,6.1,13.62,13.62v42.77h217.38C987.67,493.44,994.8,486.31,994.8,477.51z" />
    <path
        d="M606.55,301.06l0-40.46c0-8.73-7.07-15.8-15.8-15.8l-181.5,0c-8.73,0-15.8,7.07-15.8,15.8l0,40.47
		c0,0.69-0.56,1.25-1.25,1.25H289.38c-0.69,0-1.25-0.56-1.25-1.25v-55.02c0-58.86,47.71-106.57,106.57-106.57h210.6
		c58.86,0,106.57,47.71,106.57,106.57v55.02c0,0.69-0.56,1.25-1.25,1.25H607.8C607.11,302.31,606.55,301.75,606.55,301.06z" />
</svg>