<?xml version="1.0" encoding="utf-8"?>
<!-- Generator: Adobe Illustrator 26.1.0, SVG Export Plug-In . SVG Version: 6.00 Build 0)  -->
<svg version="1.1" xmlns="http://www.w3.org/2000/svg" xmlns:xlink="http://www.w3.org/1999/xlink" x="0px" y="0px"
	 viewBox="0 0 1000 1000" style="enable-background:new 0 0 1000 1000;" xml:space="preserve">
<style type="text/css">
	.st0{display:none;}
	.st1{display:inline;}
</style>
<g id="Слой_13" class="st0">
	<g class="st1">
		<circle cx="601.93" cy="149.71" r="37.24"/>
	</g>
	<g class="st1">
		<circle cx="773.15" cy="248.1" r="37.24"/>
	</g>
	<g class="st1">
		<circle cx="774.26" cy="787.62" r="37.24"/>
	</g>
	<g class="st1">
		<circle cx="603.45" cy="886.71" r="37.24"/>
	</g>
	<g class="st1">
		<circle cx="405.97" cy="887.11" r="37.24"/>
	</g>
	<g class="st1">
		<circle cx="234.74" cy="788.73" r="37.24"/>
	</g>
	<g class="st1">
		<circle cx="233.63" cy="249.21" r="37.24"/>
	</g>
	<g class="st1">
		<circle cx="404.45" cy="150.12" r="37.24"/>
	</g>
	<g class="st1">
		<circle cx="601.93" cy="149.71" r="37.24"/>
	</g>
	<g class="st1">
		<path d="M236.64,563.62l35.09-185.47h53.53l-57.83,260.66h-54.07l-42.43-174.37L128.5,638.81H74.44L16.61,378.15h53.53
			l35.27,185.11l42.97-185.11h45.47L236.64,563.62z"/>
		<path d="M565.7,563.62l35.09-185.47h53.53l-57.82,260.66h-54.07L500,464.44l-42.43,174.37h-54.07l-57.83-260.66h53.53
			l35.27,185.11l42.97-185.11h45.47L565.7,563.62z"/>
		<path d="M894.77,563.62l35.09-185.47h53.53l-57.83,260.66H871.5l-42.43-174.37l-42.43,174.37h-54.07l-57.83-260.66h53.53
			l35.27,185.11l42.97-185.11h45.47L894.77,563.62z"/>
	</g>
</g>
<g id="Слой_14" class="st0">
	<path class="st1" d="M714.12,288.7h234.67c28.29,0,51.22,22.93,51.22,51.22v320.16c0,28.29-22.93,51.22-51.22,51.22H51.22
		C22.93,711.3,0,688.37,0,660.08V339.92c0-28.29,22.93-51.22,51.22-51.22h234.67H714.12z M500,309.6
		c-105.16,0-190.4,85.25-190.4,190.4S394.84,690.4,500,690.4S690.4,605.16,690.4,500S605.16,309.6,500,309.6z"/>
	<circle class="st1" cx="500" cy="500" r="118.65"/>
</g>
<g id="Слой_12" class="st0">
	<polygon class="st1" points="693.9,275.22 734.36,426.23 844.9,315.68 	"/>
	<circle class="st1" cx="867.37" cy="448.69" r="43.79"/>
	<polygon class="st1" points="693.9,788.67 844.9,748.21 734.36,637.67 	"/>
	<circle class="st1" cx="867.37" cy="615.2" r="43.79"/>
	<path class="st1" d="M525.27,431.36H163.17V246.73h362.11V431.36z M110.46,197.27c0,0-63.08,47.66-63.08,141.78
		s63.08,141.78,63.08,141.78h467.52c0,0,63.08-47.66,63.08-141.78s-63.08-141.78-63.08-141.78H110.46z"/>
	<path class="st1" d="M525.27,817.16H163.17V632.54h362.11V817.16z M110.46,583.07c0,0-63.08,47.66-63.08,141.78
		s63.08,141.78,63.08,141.78h467.52c0,0,63.08-47.66,63.08-141.78s-63.08-141.78-63.08-141.78H110.46z"/>
</g>
<g id="Слой_11" class="st0">
	<path class="st1" d="M701.78,571.05c8.36-21.97,12.94-45.79,12.94-70.66c0-98.03-71.16-179.74-164.54-196.21l-1.01-120.89
		c31.72,3.15,60.88,11.01,90.37,23.48c37.95,16.05,72.03,39.03,101.28,68.28c29.26,29.26,52.23,63.33,68.28,101.28
		c16.63,39.31,25.06,81.05,25.06,124.05s-8.43,84.74-25.06,124.05L701.78,571.05z M354.05,383.76
		c-23.77,32.81-37.79,73.11-37.79,116.63c0,98.35,71.63,180.28,165.46,196.37l0.17,120.57c-31.16-3.25-61.46-11.06-90.45-23.32
		c-37.95-16.05-72.03-39.02-101.28-68.28c-29.26-29.26-52.23-63.33-68.28-101.28c-16.63-39.31-25.06-81.05-25.06-124.05
		s8.43-84.74,25.06-124.05c11.49-27.16,26.52-52.34,44.86-75.18c7.29-9.08,15.1-17.79,23.42-26.1L354.05,383.76z"/>
	<polygon class="st1" points="654.91,806.08 907.9,625.51 625.03,496.7 	"/>
	<polygon class="st1" points="384.75,173.65 131.75,354.21 414.63,483.03 	"/>
</g>
<g id="Слой_10">
	<circle cx="661.44" cy="497.58" r="61.53"/>
	<circle cx="292.51" cy="622.98" r="55.19"/>
	<rect x="165.38" y="319.61" width="110.38" height="110.38"/>
	<polygon points="0,500.4 129.25,575.02 129.25,425.78 	"/>
	<path d="M476.95,526.69l-66.02,66.02c-4.21,4.21-9.93,6.58-15.88,6.58H333.4v47.36h81.25c5.96,0,11.67-2.37,15.88-6.58
		l104.76-104.74c5.54-5.54,13.05-8.65,20.88-8.65l83.41,0v-58.21l-146.86-0.01c-7.81,0-15.3-3.09-20.83-8.6L369.06,357.52
		c-4.3-4.28-10.13-6.69-16.2-6.69h-81.07v47.36h62.95c6.13,0,12,2.45,16.32,6.81l62.67,63.66l-288.79-0.18v58.21H476.95z"/>
	<circle cx="799.95" cy="498.74" r="61.53"/>
	<circle cx="938.47" cy="497.04" r="61.53"/>
</g>
<g id="Слой_2" class="st0">
	<path class="st1" d="M836.96,642.76v107.6c-1.63,37.29-30.01,79.7-76.34,107.83c-63.65,38.64-137.07,35.71-163.99-6.56
		c-26.92-42.26,2.85-107.84,66.49-146.48c33.5-20.34,68.56-29.24,99.27-26.87l-0.07-39.26l0.07-45.57l-0.07-305.99v-8.89
		c0-11.14-10.22-19.62-21.48-17.84c0,0-124.28,14.56-169.17,14.56c-44.89,0-159.75-14.56-159.75-14.56
		c-11.26-1.78-21.48,6.7-21.48,17.84v8.89v373.67l-0.07,89.22c-1.63,37.29-30.01,79.7-76.34,107.83
		c-63.65,38.64-137.07,35.71-163.99-6.56c-26.92-42.26,2.85-107.84,66.49-146.48c33.5-20.34,68.56-29.24,99.27-26.87V656.8V211.13
		v-62.03c0-20.12,16.71-36.43,37.32-36.43c26.99,0,124.32,30.22,216.05,30.22s203.47-30.22,230.46-30.22
		c20.61,0,37.32,16.31,37.32,36.43v62.03v409.95V642.76z"/>
</g>
<g id="Слой_3" class="st0">
	<path class="st1" d="M328.92,300.83l17.87-114.11c3.03-11.11,14.33-16.21,26.36-18.9c12.95-2.9,58.71-8.2,126.85-8.2
		s113.3,4.38,126.85,8.2c13.56,3.81,23.33,7.79,26.36,18.9l17.87,114.11h187.5c22.6,0,40.92,18.32,40.92,40.92v403.78
		c0,22.6-18.32,40.92-40.92,40.92H141.42c-22.6,0-40.92-18.32-40.92-40.92V341.75c0-22.6,18.32-40.92,40.92-40.92H328.92z
		 M500,374.82c-93.24,0-168.83,75.59-168.83,168.83S406.76,712.47,500,712.47s168.83-75.59,168.83-168.83S593.24,374.82,500,374.82z
		"/>
	<circle class="st1" cx="500" cy="543.64" r="94.8"/>
</g>
<g id="Слой_4" class="st0">
	<path class="st1" d="M500,999.18c-67.37,0-132.75-13.21-194.32-39.25c-59.45-25.14-112.83-61.13-158.66-106.96
		c-45.83-45.83-81.81-99.21-106.96-158.66C14.02,632.75,0.82,567.37,0.82,500s13.21-132.75,39.25-194.32
		c25.14-59.45,61.13-112.83,106.96-158.66c45.83-45.83,99.21-81.81,158.66-106.96C367.25,14.02,432.63,0.82,500,0.82
		s132.75,13.21,194.32,39.25c59.45,25.14,112.83,61.13,158.66,106.96c45.83,45.83,81.81,99.21,106.96,158.66
		c26.04,61.57,39.25,126.95,39.25,194.32s-13.21,132.75-39.25,194.32c-25.14,59.45-61.13,112.83-106.96,158.66
		s-99.21,81.81-158.66,106.96C632.75,985.98,567.37,999.18,500,999.18z M500,82.76C269.93,82.76,82.76,269.93,82.76,500
		c0,230.07,187.18,417.24,417.24,417.24c230.07,0,417.24-187.17,417.24-417.24C917.24,269.93,730.07,82.76,500,82.76z"/>
	<rect x="83.21" y="460.01" class="st1" width="833.59" height="80"/>
	<path class="st1" d="M524.49,67.17C419.85,181.81,355.95,334.24,355.95,501.31c0,172.77,68.33,329.89,179.39,445.74l-76.52,37.24
		c-53.18-59.52-95.8-126.79-126.97-200.48c-37.86-89.52-57.06-184.56-57.06-282.5s19.2-192.98,57.06-282.5
		c30.99-73.26,73.3-140.18,126.05-199.45L524.49,67.17z"/>
	<path class="st1" d="M513.15,8.14c66.62,66.62,118.94,144.23,155.49,230.65c37.86,89.52,57.06,184.56,57.06,282.5
		s-19.2,192.98-57.06,282.5c-28.27,66.85-65.98,128.42-112.44,183.71l-71.66-41.62c99.57-113.49,160-262.12,160-424.6
		c0-176.46-71.27-336.58-186.55-453.09L513.15,8.14z"/>
	<path class="st1" d="M884.7,231.29c-32.47,20.32-66.59,38.06-102.2,53.12c-89.52,37.86-184.56,57.06-282.5,57.06
		s-192.98-19.2-282.5-57.06c-34.58-14.62-67.74-31.77-99.35-51.35l50.41-64.67c96.9,58.34,210.32,91.91,331.44,91.91
		c123.08,0,238.22-34.68,336.15-94.78L884.7,231.29z"/>
	<path class="st1" d="M114.59,768c32.68-20.5,67.04-38.39,102.91-53.57c89.52-37.86,184.56-57.06,282.5-57.06
		s192.98,19.2,282.5,57.06c35.4,14.97,69.33,32.59,101.62,52.76l-51.7,63.85c-97.12-58.7-210.9-92.51-332.42-92.51
		c-121.55,0-235.36,33.82-332.49,92.55L114.59,768z"/>
</g>
<g id="Слой_5" class="st0">
	<path class="st1" d="M970.72,580.4v185.56c0,47.71-38.68,86.39-86.39,86.39H115.67c-47.71,0-86.39-38.68-86.39-86.39V580.4
		c0-8.3,6.73-15.04,15.04-15.04h197.03v24.35c0,8.3,6.73,15.04,15.04,15.04h89.59c8.3,0,15.04-6.73,15.04-15.04v-24.35h268.1v24.35
		c0,8.3,6.73,15.04,15.04,15.04h89.59c8.3,0,15.04-6.73,15.04-15.04v-24.35h206.92C963.99,565.36,970.72,572.09,970.72,580.4z"/>
	<path class="st1" d="M970.72,471.65v-80.6c0-47.77-38.73-86.5-86.5-86.5H115.78c-47.77,0-86.5,38.73-86.5,86.5v80.6
		c0,8.37,6.78,15.15,15.15,15.15h196.91v-33.29c0-7.16,5.8-12.96,12.96-12.96h93.74c7.16,0,12.96,5.8,12.96,12.96v33.29h268.1
		v-33.29c0-7.16,5.8-12.96,12.96-12.96h93.74c7.16,0,12.96,5.8,12.96,12.96v33.29h206.81C963.94,486.8,970.72,480.02,970.72,471.65z
		"/>
	<path class="st1" d="M627.37,319.63l-0.27-47.41c-0.11-19.2-15.7-34.7-34.9-34.7l-184.7,0c-18.8,0-34.22,14.89-34.88,33.67
		l-1.71,48.44c0,1.29-72.46,0.58-72.46-0.07v-52.34c0-55.99,45.39-101.38,101.38-101.38h200.36c55.99,0,101.38,45.39,101.38,101.38
		v52.34C701.56,320.21,627.37,320.92,627.37,319.63z"/>
</g>
<g id="Слой_6" class="st0">
	<path class="st1" d="M956.85,811.98H179.24L33.15,665.9V198.02c0-5.52,4.48-10,10-10h913.69c5.52,0,10,4.48,10,10v603.96
		C966.85,807.5,962.37,811.98,956.85,811.98z M91.14,608.97l146.08,145.02V463.95L91.14,608.97z"/>
</g>
<g id="Слой_7" class="st0">
	<rect x="271.33" y="244.9" class="st1" width="457.35" height="80"/>
	<rect x="271.33" y="665.75" class="st1" width="457.35" height="80"/>
	<path class="st1" d="M874.54,604.13h-50c-19.33,0-35,15.67-35,35v31.07c0,18.74,15.19,33.93,33.93,33.93h52.14
		c18.74,0,33.93-15.19,33.93-33.93v-31.07C909.54,619.8,893.87,604.13,874.54,604.13z M874.54,294.28h-50c-19.33,0-35,15.67-35,35
		v31.07c0,18.74,15.19,33.93,33.93,33.93h52.14c18.74,0,33.93-15.19,33.93-33.93v-31.07C909.54,309.95,893.87,294.28,874.54,294.28z
		 M874.54,451.8h-50c-19.33,0-35,15.67-35,35v31.07c0,18.74,15.19,33.93,33.93,33.93h52.14c18.74,0,33.93-15.19,33.93-33.93V486.8
		C909.54,467.47,893.87,451.8,874.54,451.8z M905.86,178.29h-120v15c0,19.33,15.67,35,35,35h49c19.88,0,36-16.12,36-36V178.29z
		 M789.54,821.62h120v-15c0-19.33-15.67-35-35-35h-49c-19.88,0-36,16.12-36,36V821.62z M967.63,821.62H737.82c-8.28,0-15-6.72-15-15
		V193.38c0-8.28,6.72-15,15-15h229.81c8.28,0,15,6.72,15,15v613.24C982.63,814.91,975.92,821.62,967.63,821.62z"/>
	<path class="st1" d="M169.84,614.63h-50c-19.33,0-35,15.67-35,35v31.07c0,18.74,15.19,33.93,33.93,33.93h52.14
		c18.74,0,33.93-15.19,33.93-33.93v-31.07C204.84,630.3,189.17,614.63,169.84,614.63z M169.84,304.77h-50c-19.33,0-35,15.67-35,35
		v31.07c0,18.74,15.19,33.93,33.93,33.93h52.14c18.74,0,33.93-15.19,33.93-33.93v-31.07C204.84,320.44,189.17,304.77,169.84,304.77z
		 M169.84,462.29h-50c-19.33,0-35,15.67-35,35v31.07c0,18.74,15.19,33.93,33.93,33.93h52.14c18.74,0,33.93-15.19,33.93-33.93v-31.07
		C204.84,477.96,189.17,462.29,169.84,462.29z M201.16,188.79h-120v15c0,19.33,15.67,35,35,35h49c19.88,0,36-16.12,36-36V188.79z
		 M84.84,832.12h120v-15c0-19.33-15.67-35-35-35h-49c-19.88,0-36,16.12-36,36V832.12z M262.93,832.12H33.12c-8.28,0-15-6.72-15-15
		V203.88c0-8.28,6.72-15,15-15h229.81c8.28,0,15,6.72,15,15v613.24C277.93,825.4,271.22,832.12,262.93,832.12z"/>
</g>
<g id="Слой_8" class="st0">
	<path class="st1" d="M606.7,611.67c4.97,0,8.27,3.76,12.22,6.77c60.78,46.4,155.94,153.34,203.96,153.34
		c60.95,0,102.85-6.32,88.43-117.21c-7.24-55.68-34.15-257.51-45.47-310.31s-70.64-116.06-152.28-116.06
		c-48.85,0-92.16,23.69-126.79,59.95c-4.23,3.65-13.26,4.47-17.2,4.47l-142.94,0c-3.94,0-10.7-1.62-13.42-4.47
		c-34.63-36.25-77.95-59.95-126.79-59.95c-81.64,0-140.96,63.25-152.28,116.06S95.92,598.9,88.68,654.58
		c-14.41,110.89,27.49,117.21,88.43,117.21c48.03,0,159.18-116.06,204.7-153.34c3.84-3.15,7.25-6.77,12.22-6.77L606.7,611.67z"/>
</g>
</svg>
