<svg id="Video" version="1.1" xmlns="http://www.w3.org/2000/svg" xmlns:xlink="http://www.w3.org/1999/xlink" x="0px"
    y="0px" viewBox="0 0 1000 1000" xml:space="preserve">
    <rect x="271.33" y="239.57" width="457.35" height="90.66" />
    <rect x="271.33" y="660.41" width="457.35" height="90.66" />
    <path d="M262.18,821.62H32.37c-8.28,0-15-6.72-15-15V193.38c0-8.28,6.72-15,15-15h229.81c8.28,0,15,6.72,15,15v613.24
		C277.18,814.91,270.46,821.62,262.18,821.62z M183.07,621.37H105.1c-2.65,0-4.8,2.15-4.8,4.8v59.33c0,2.65,2.15,4.8,4.8,4.8h77.97
		c2.65,0,4.8-2.15,4.8-4.8v-59.33C187.87,623.52,185.72,621.37,183.07,621.37z M183.07,775.16H105.1c-2.65,0-4.8,2.15-4.8,4.8v41.66
		h87.58v-41.66C187.87,777.31,185.72,775.16,183.07,775.16z M183.07,308.55H105.1c-2.65,0-4.8,2.15-4.8,4.8v59.33
		c0,2.65,2.15,4.8,4.8,4.8h77.97c2.65,0,4.8-2.15,4.8-4.8v-59.33C187.87,310.7,185.72,308.55,183.07,308.55z M183.07,467.58H105.1
		c-2.65,0-4.8,2.15-4.8,4.8v59.33c0,2.65,2.15,4.8,4.8,4.8h77.97c2.65,0,4.8-2.15,4.8-4.8v-59.33
		C187.87,469.73,185.72,467.58,183.07,467.58z M188.53,178.38h-87.58v35.27c0,2.65,2.15,4.8,4.8,4.8h77.97c2.65,0,4.8-2.15,4.8-4.8
		V178.38z" />
    <path d="M967.63,821.62H737.82c-8.28,0-15-6.72-15-15V193.38c0-8.28,6.72-15,15-15h229.81c8.28,0,15,6.72,15,15v613.24
		C982.63,814.91,975.92,821.62,967.63,821.62z M888.52,621.37h-77.97c-2.65,0-4.8,2.15-4.8,4.8v59.33c0,2.65,2.15,4.8,4.8,4.8h77.97
		c2.65,0,4.8-2.15,4.8-4.8v-59.33C893.33,623.52,891.18,621.37,888.52,621.37z M888.52,775.16h-77.97c-2.65,0-4.8,2.15-4.8,4.8
		v41.66h87.58v-41.66C893.33,777.31,891.18,775.16,888.52,775.16z M888.52,308.55h-77.97c-2.65,0-4.8,2.15-4.8,4.8v59.33
		c0,2.65,2.15,4.8,4.8,4.8h77.97c2.65,0,4.8-2.15,4.8-4.8v-59.33C893.33,310.7,891.18,308.55,888.52,308.55z M888.52,467.58h-77.97
		c-2.65,0-4.8,2.15-4.8,4.8v59.33c0,2.65,2.15,4.8,4.8,4.8h77.97c2.65,0,4.8-2.15,4.8-4.8v-59.33
		C893.33,469.73,891.18,467.58,888.52,467.58z M893.99,178.38h-87.58v35.27c0,2.65,2.15,4.8,4.8,4.8h77.97c2.65,0,4.8-2.15,4.8-4.8
		V178.38z" />
</svg>